<svg width="40" height="40" viewBox="0 0 40 40" fill="none" xmlns="http://www.w3.org/2000/svg">
<path d="M34.6197 12.3114C31.2079 15.5562 26.4599 16.8685 21.9147 17.5246C17.8586 18.1211 13.6236 18.3716 9.99702 19.9463C6.2034 21.6045 3.81748 24.3483 4.00835 28.5953C4.12765 31.1482 5.49955 33.6415 7.43215 35.5622C7.96898 35.9916 8.51775 36.3973 9.09037 36.7671C9.05458 36.6955 9.01879 36.612 8.95914 36.5404C6.65673 33.3791 4.86728 24.3245 16.9162 22.3561C19.3379 21.9624 21.7596 21.5568 24.1694 21.0081C26.2929 20.5189 30.0865 19.326 30.504 19.0993C30.85 18.8965 28.2493 21.8193 20.2803 24.1098C7.62302 27.7483 11.5121 38.2583 15.3773 39.4632C16.8565 39.8211 18.4074 40 19.994 40C31.0409 40 40 31.0528 40 20.006C40 16.0334 38.8428 12.3352 36.8506 9.23352C36.3138 10.4026 35.5622 11.4047 34.6197 12.3114Z" fill="#E41E26"/>
<path d="M0 20.006C0 22.201 0.357888 24.2887 1.00209 26.269C1.24068 24.0978 1.98032 22.0459 3.36415 20.3042C5.86937 17.119 9.75842 15.6278 13.8026 14.8285C17.8348 14.0412 22.1294 13.9457 26.269 12.9436C28.5595 12.3949 30.8858 11.5001 32.7349 10.0328C34.2738 8.79213 34.9896 6.90725 33.391 5.15359C32.8064 4.62869 32.1861 4.12765 31.5419 3.67432C32.711 6.07217 31.8044 9.63913 22.3203 10.5696C19.8867 10.8202 17.465 11.0468 15.0671 11.3809C14.3633 11.4763 13.4924 11.6075 12.5977 11.7626C12.5977 11.7626 13.385 10.7844 18.9442 9.51983C30.3728 6.94304 28.2374 1.96839 24.8494 0.596481C23.2985 0.214733 21.6642 0 19.994 0C8.94721 0.0119296 0 8.95914 0 20.006Z" fill="#F8B228"/>
</svg>
