<svg width="441" height="70" viewBox="0 0 441 70" fill="none" xmlns="http://www.w3.org/2000/svg">
<path d="M0.9 29.7V20.5H9V9.1L19.3 8.1V20.5H38V29.7H19.3V49.7C19.3 53.3667 19.6667 55.9667 20.4 57.5C21.1333 58.9667 22.6333 59.7 24.9 59.7C28.8333 59.7 33.4333 59.0667 38.7 57.8L40.4 66.7C34.6 68.2333 29.4333 69 24.9 69C18.5 69 14.2333 67.5667 12.1 64.7C10.0333 61.8333 9 56.8333 9 49.7V29.7H0.9ZM66.6 59.4C68.4667 59.4 70.5333 58.9667 72.8 58.1C75.0667 57.2333 76.8667 56.2667 78.2 55.2V48.2C74.2 47.8667 70.9333 47.7 68.4 47.7C62.8667 47.7 60.1 49.7667 60.1 53.9C60.1 57.5667 62.2667 59.4 66.6 59.4ZM65 69.1C54.3333 69.1 49 64.0333 49 53.9C49 48.5 50.7 44.7333 54.1 42.6C57.5667 40.4 62.3333 39.3 68.4 39.3C71.2667 39.3 74.5333 39.4667 78.2 39.8C78.2 35.8 77.6333 33.0667 76.5 31.6C75.3667 30.1333 73.4 29.4 70.6 29.4C67.8 29.4 64.5333 29.7333 60.8 30.4C57.0667 31.0667 54.2 31.7333 52.2 32.4L50.3 22.9C57.3 20.7667 64.1333 19.7 70.8 19.7C77.4667 19.7 82.0667 21.1667 84.6 24.1C87.2 27.0333 88.5 32 88.5 39V59.3L89.6 68.1L79.3 69.1L78.3 64.5C72.7 67.5667 68.2667 69.1 65 69.1ZM100.7 68V1.29999H111V24C115.133 21.1333 119 19.7 122.6 19.7C129.533 19.7 134.533 21.7333 137.6 25.8C140.667 29.8 142.2 36.0667 142.2 44.6C142.2 53.1333 140.3 59.3667 136.5 63.3C132.767 67.1667 127.8 69.1 121.6 69.1C118.733 69.1 115.167 68.0667 110.9 66L110.7 68H100.7ZM121.3 29.4C118.033 29.4 114.6 30.9 111 33.9V56.4C115 58.4 118.6 59.4 121.8 59.4C125 59.4 127.333 58.2 128.8 55.8C130.333 53.3333 131.1 49.5667 131.1 44.5C131.1 34.4333 127.833 29.4 121.3 29.4ZM151.5 68V58.8H166.4V10.6L153.5 10.7L153.4 1.6L176.7 1.5V58.8H190.8V68H151.5ZM199.9 44.3C199.9 36.2333 201.7 30.1333 205.3 26C208.9 21.8 213.9 19.7 220.3 19.7C226.7 19.7 231.633 21.6 235.1 25.4C238.633 29.1333 240.467 34.6333 240.6 41.9L240.2 49.3H211C211.6 56.5 215.2 60.1 221.8 60.1C226.4 60.1 231.267 59.2667 236.4 57.6L238.5 66.3C236.367 67.0333 233.6 67.6667 230.2 68.2C226.8 68.8 224 69.1 221.8 69.1C207.2 69.1 199.9 60.8333 199.9 44.3ZM220.7 29C217.567 29 215.2 29.9333 213.6 31.8C212.067 33.6 211.2 36.6333 211 40.9H229.5C229.5 32.9667 226.567 29 220.7 29ZM251.1 68V58.8H260.8V29.7H251.1V20.5H271.1L271.3 25.3C276.367 22.4333 282.167 20.6333 288.7 19.9H291.4V29.9H288.7C281.367 30.5667 275.567 32.1 271.3 34.5V59H286.2V68H251.1Z" fill="#434343"/>
<path d="M312.5 68V53.5H327V68H312.5ZM366.6 59.4C368.467 59.4 370.533 58.9667 372.8 58.1C375.067 57.2333 376.867 56.2667 378.2 55.2V48.2C374.2 47.8667 370.933 47.7 368.4 47.7C362.867 47.7 360.1 49.7667 360.1 53.9C360.1 57.5667 362.267 59.4 366.6 59.4ZM365 69.1C354.333 69.1 349 64.0333 349 53.9C349 48.5 350.7 44.7333 354.1 42.6C357.567 40.4 362.333 39.3 368.4 39.3C371.267 39.3 374.533 39.4667 378.2 39.8C378.2 35.8 377.633 33.0667 376.5 31.6C375.367 30.1333 373.4 29.4 370.6 29.4C367.8 29.4 364.533 29.7333 360.8 30.4C357.067 31.0667 354.2 31.7333 352.2 32.4L350.3 22.9C357.3 20.7667 364.133 19.7 370.8 19.7C377.467 19.7 382.067 21.1667 384.6 24.1C387.2 27.0333 388.5 32 388.5 39V59.3L389.6 68.1L379.3 69.1L378.3 64.5C372.7 67.5667 368.267 69.1 365 69.1ZM401.1 68V58.8H416V29.7H401.9V20.5H426.3V58.8H440.4V68H401.1ZM420.6 13.6C418.6 13.6 417 13 415.8 11.8C414.667 10.5333 414.1 8.9 414.1 6.9C414.1 4.9 414.7 3.3 415.9 2.1C417.1 0.899996 418.7 0.299995 420.7 0.299995C422.767 0.299995 424.333 0.899996 425.4 2.1C426.533 3.23333 427.1 4.83333 427.1 6.9C427.1 8.96666 426.533 10.6 425.4 11.8C424.267 13 422.667 13.6 420.6 13.6Z" fill="#0096C7"/>
</svg>
