<svg width="36" height="35" viewBox="0 0 36 35" fill="none" xmlns="http://www.w3.org/2000/svg">
<path fill-rule="evenodd" clip-rule="evenodd" d="M18 0.479004C18.1714 0.478895 18.3409 0.515918 18.4967 0.587528C18.6525 0.659138 18.7909 0.763635 18.9025 0.893837L23.6525 6.4355C23.8574 6.67486 23.9588 6.98582 23.9345 7.29998C23.9101 7.61413 23.762 7.90575 23.5226 8.11067C23.2833 8.3156 22.9723 8.41704 22.6582 8.39269C22.344 8.36834 22.0524 8.2202 21.8475 7.98084L19.1875 4.8775V22.2498C19.1875 22.5648 19.0623 22.8668 18.8396 23.0895C18.6169 23.3122 18.3149 23.4373 18 23.4373C17.685 23.4373 17.383 23.3122 17.1603 23.0895C16.9376 22.8668 16.8125 22.5648 16.8125 22.2498V4.87592L14.1525 7.98084C14.051 8.09936 13.9272 8.19673 13.7881 8.26739C13.649 8.33806 13.4973 8.38064 13.3418 8.39269C13.1862 8.40475 13.0298 8.38605 12.8815 8.33766C12.7332 8.28927 12.5958 8.21214 12.4773 8.11067C12.3588 8.0092 12.2614 7.88538 12.1907 7.74629C12.1201 7.60719 12.0775 7.45553 12.0654 7.29998C12.0534 7.14442 12.0721 6.98802 12.1205 6.83969C12.1689 6.69137 12.246 6.55402 12.3475 6.4355L17.0975 0.893837C17.209 0.763635 17.3475 0.659138 17.5033 0.587528C17.659 0.515918 17.8285 0.478895 18 0.479004ZM10.077 11.5655C10.3919 11.5638 10.6946 11.6873 10.9185 11.9088C11.1424 12.1303 11.2691 12.4317 11.2708 12.7467C11.2725 13.0616 11.149 13.3643 10.9275 13.5882C10.7059 13.8121 10.4046 13.9388 10.0896 13.9405C8.35904 13.95 7.13196 13.9943 6.19938 14.1653C5.30321 14.3316 4.78229 14.596 4.39754 14.9808C3.95896 15.4193 3.67396 16.0353 3.51721 17.1974C3.35729 18.3928 3.35413 19.9778 3.35413 22.2498V23.8332C3.35413 26.1068 3.35729 27.6918 3.51721 28.8872C3.67396 30.0493 3.96054 30.6637 4.39754 31.1038C4.83613 31.5408 5.45046 31.8258 6.61421 31.9826C7.80804 32.1441 9.39454 32.1457 11.6666 32.1457H24.3333C26.6054 32.1457 28.1903 32.1441 29.3873 31.9826C30.5495 31.8258 31.1638 31.5408 31.6024 31.1023C32.041 30.6637 32.326 30.0493 32.4827 28.8872C32.6426 27.6918 32.6458 26.1068 32.6458 23.8332V22.2498C32.6458 19.9778 32.6426 18.3928 32.4827 17.1958C32.326 16.0353 32.0394 15.4193 31.6024 14.9808C31.216 14.596 30.6967 14.3316 29.8005 14.1653C28.868 13.9943 27.6409 13.95 25.9103 13.9405C25.7543 13.9397 25.6001 13.9081 25.4563 13.8477C25.3126 13.7872 25.1821 13.6991 25.0725 13.5882C24.9628 13.4774 24.876 13.346 24.8171 13.2016C24.7582 13.0572 24.7283 12.9026 24.7291 12.7467C24.73 12.5907 24.7615 12.4365 24.8219 12.2927C24.8824 12.149 24.9706 12.0185 25.0814 11.9088C25.1923 11.7992 25.3236 11.7124 25.468 11.6535C25.6124 11.5946 25.767 11.5647 25.923 11.5655C27.6361 11.575 29.0627 11.6162 30.2296 11.8299C31.4298 12.0516 32.451 12.4712 33.2823 13.3024C34.2355 14.254 34.644 15.4558 34.8371 16.8808C35.0208 18.2519 35.0208 19.9983 35.0208 22.1628V23.9203C35.0208 26.0863 35.0208 27.8311 34.8371 29.2038C34.644 30.6288 34.2355 31.829 33.2823 32.7822C32.3291 33.7353 31.129 34.1438 29.704 34.337C28.3312 34.5207 26.5848 34.5207 24.4204 34.5207H11.5795C9.41513 34.5207 7.66871 34.5207 6.29596 34.337C4.87096 34.1454 3.67079 33.7353 2.71763 32.7822C1.76446 31.829 1.35596 30.6288 1.16438 29.2038C0.979126 27.8311 0.979126 26.0847 0.979126 23.9203V22.1628C0.979126 19.9983 0.979126 18.2519 1.16438 16.8792C1.35438 15.4542 1.76604 14.254 2.71763 13.3008C3.54888 12.4712 4.57013 12.05 5.77029 11.8299C6.93721 11.6162 8.36379 11.575 10.077 11.5655Z" fill="black"/>
</svg>
